<svg width="92" height="92" viewBox="0 0 92 92" fill="none" xmlns="http://www.w3.org/2000/svg">
<circle cx="46" cy="46" r="46" fill="white"/>
<g clip-path="url(#clip0)">
<path d="M86 46C86 23.9086 68.0914 6 46 6C23.9086 6 6 23.9086 6 46C6 68.0914 23.9086 86 46 86C68.0914 86 86 68.0914 86 46Z" fill="#38BEB1"/>
<path d="M28.5 58.5C31.9518 58.5 34.75 55.7018 34.75 52.25C34.75 48.7982 31.9518 46 28.5 46C25.0482 46 22.25 48.7982 22.25 52.25C22.25 55.7018 25.0482 58.5 28.5 58.5Z" fill="#68463C"/>
<path d="M28.5 57.25H49.75V88.3375C49.75 88.3375 45.1962 91 39.125 91C33.0538 91 28.5 86.6538 28.5 86.6538V57.25Z" fill="#68463C"/>
<path d="M49.5137 72.39C49.5137 79.1212 48.4262 78.4837 41.3475 78.4837C34.2687 78.4837 31.0025 73.0275 31.0025 66.2962C31.0025 59.5662 30.7337 53.5 36.4462 53.5C52.6 54.095 49.5137 65.6587 49.5137 72.39Z" fill="#553329"/>
<path d="M63.3575 51.125C63.3575 62.2775 61.625 75.9912 47.875 75.9912C34.125 75.9912 27.785 62.2775 27.785 51.125C24.75 37.875 25.375 22.25 46 22.25C66.625 22.25 63.3575 39.9712 63.3575 51.125Z" fill="#836055"/>
<path d="M53.5 57.25H52.25C51.5596 57.25 51 57.8096 51 58.5C51 59.1904 51.5596 59.75 52.25 59.75H53.5C54.1904 59.75 54.75 59.1904 54.75 58.5C54.75 57.8096 54.1904 57.25 53.5 57.25Z" fill="#68463C"/>
<path d="M53.5 81H26C19.7868 81 14.75 86.0368 14.75 92.25V98.5C14.75 104.713 19.7868 109.75 26 109.75H53.5C59.7132 109.75 64.75 104.713 64.75 98.5V92.25C64.75 86.0368 59.7132 81 53.5 81Z" fill="#353755"/>
<path fill-rule="evenodd" clip-rule="evenodd" d="M41.1475 40.3299C50.8925 41.7574 67.9975 44.2624 69.75 28.4999C71 17.2499 54.125 4.12492 36 15.9999C24.6125 17.6874 21.7638 26.3474 21.115 33.8174C20.237 34.7444 19.7484 35.9731 19.75 37.2499C19.75 37.9124 19.8788 38.5462 20.1125 39.1249C19.8788 39.7037 19.75 40.3374 19.75 40.9999C19.75 42.3824 20.3113 43.6337 21.2175 44.5374C21.0078 45.2249 20.9488 45.9496 21.0445 46.6619C21.1403 47.3743 21.3885 48.0577 21.7722 48.6655C22.1559 49.2732 22.6662 49.7911 23.2682 50.1838C23.8702 50.5765 24.5498 50.8348 25.2607 50.9411C25.9716 51.0474 26.697 50.9991 27.3876 50.7997C28.0781 50.6002 28.7175 50.2542 29.2623 49.7852C29.807 49.3163 30.2442 48.7354 30.5441 48.0821C30.8439 47.4289 30.9995 46.7187 31 45.9999C31.7629 46 32.5158 45.8255 33.2008 45.4898C33.8859 45.1541 34.4851 44.666 34.9525 44.063C35.4199 43.46 35.7431 42.7581 35.8973 42.0109C36.0516 41.2638 36.0329 40.4912 35.8425 39.7524C35.895 39.7499 35.9475 39.7499 36 39.7499C37.19 39.7499 38.9875 40.0124 41.1475 40.3299Z" fill="#1B0B47"/>
<path d="M42.1613 63.5C42.1613 63.1685 42.293 62.8505 42.5274 62.6161C42.7618 62.3817 43.0797 62.25 43.4113 62.25H54.84C55.1715 62.25 55.4895 62.3817 55.7239 62.6161C55.9583 62.8505 56.09 63.1685 56.09 63.5C56.09 65.1576 55.4315 66.7473 54.2594 67.9194C53.0873 69.0915 51.4976 69.75 49.84 69.75H48.4113C46.7537 69.75 45.164 69.0915 43.9919 67.9194C42.8198 66.7473 42.1613 65.1576 42.1613 63.5Z" fill="#66253C"/>
<path fill-rule="evenodd" clip-rule="evenodd" d="M51.9437 69.3875C51.2685 69.6283 50.5568 69.751 49.8399 69.75H48.4112C46.7969 69.75 45.2452 69.1254 44.0811 68.007C42.917 66.8885 42.2308 65.3631 42.1662 63.75C43.1212 63.3925 44.5387 63.4338 45.9374 63.475C46.3824 63.4875 46.8249 63.5 47.2499 63.5C50.0124 63.5 52.25 65.4588 52.25 67.875C52.25 68.4063 52.1412 68.9163 51.9437 69.3875Z" fill="#B03E67"/>
<path d="M43.5 62.25H56V63.5C56 63.8315 55.8683 64.1495 55.6339 64.3839C55.3995 64.6183 55.0815 64.75 54.75 64.75H44.75C44.4185 64.75 44.1005 64.6183 43.8661 64.3839C43.6317 64.1495 43.5 63.8315 43.5 63.5V62.25Z" fill="white"/>
<path d="M47.25 52.875C47.25 51.8395 46.4105 51 45.375 51C44.3395 51 43.5 51.8395 43.5 52.875V54.125C43.5 55.1605 44.3395 56 45.375 56C46.4105 56 47.25 55.1605 47.25 54.125V52.875Z" fill="#1B0B47"/>
<path d="M59.75 52.875C59.75 51.8395 58.9105 51 57.875 51C56.8395 51 56 51.8395 56 52.875V54.125C56 55.1605 56.8395 56 57.875 56C58.9105 56 59.75 55.1605 59.75 54.125V52.875Z" fill="#1B0B47"/>
</g>
<defs>
<clipPath id="clip0">
<rect x="6" y="6" width="80" height="80" rx="40" fill="white"/>
</clipPath>
</defs>
</svg>
