<svg width="50" height="50" viewBox="0 0 50 50" fill="none" xmlns="http://www.w3.org/2000/svg">
<path d="M32.5625 21.625L26.6979 27.4896L20.8333 33.3542L16 28.8333L13.0625 31.7708L20.8333 39.25L35.5 24.5833L32.5625 21.625ZM25 8C13.5 8 4.16666 17.3333 4.16666 28.8333C4.16666 40.3333 13.5 49.6667 25 49.6667C36.5 49.6667 45.8333 40.3333 45.8333 28.8333C45.8333 17.3333 36.5 8 25 8ZM25 45.5C15.7917 45.5 8.33332 38.0417 8.33332 28.8333C8.33332 19.625 15.7917 12.1667 25 12.1667C34.2083 12.1667 41.6667 19.625 41.6667 28.8333C41.6667 38.0417 34.2083 45.5 25 45.5Z" fill="#70ED5C"/>
</svg>
