<svg xmlns="http://www.w3.org/2000/svg" viewBox="0 0 299.94 365.43"><defs><style>.cls-1{fill:#78ba9f;}.cls-2{fill:#4d4d51;}</style></defs><g id="Capa_2" data-name="Capa 2"><g id="Capa_5" data-name="Capa 5"><path class="cls-1" d="M106.5,365.43a101.92,101.92,0,0,1-82.71-41.3C2.46,295.68-.84,260.2.16,235.45,1.94,191,21.21,147.35,49.25,124.18c19.91-16.45,44.14-23.09,70.07-19.17,35.49,5.35,52.05,28.65,63.9,53.49,23.28-5.67,46.73-3.23,63.33,6.72a51.86,51.86,0,0,1,24.34,34.1c4,17.76-.84,33.71-8.71,48,9,3.77,17.93,8.7,25,16.46,16.61,18.37,17.12,49.42,1.15,70.69-13.7,18.25-38.16,29-63.77,28.09-17.31-.62-35.21-6.1-53.35-16.32-1.31.8-2.63,1.59-4,2.37C147.44,359.92,126.57,365.43,106.5,365.43ZM104.85,124C89,124,74.65,129.22,62,139.65c-23.85,19.7-40.26,57.62-41.83,96.61-.86,21.49,1.85,52.1,19.65,75.84,25.66,34.23,71.26,42.79,112.43,21.74-29.74-22.41-47.06-51.57-47.93-81.25-1.18-39.77,27.89-72.6,59.84-87.44-10-20.55-22.34-36.45-47.86-40.3A76.94,76.94,0,0,0,104.85,124Zm84.69,209.17c12.3,5.8,24.25,8.93,35.7,9.34,19.19.67,37.19-7,47-20.08,10.22-13.62,10.23-33.9,0-45.19-5.33-5.88-12.86-9.59-21.26-12.79-3.25,4.41-6.57,8.62-9.75,12.64-1.73,2.19-3.43,4.35-5.08,6.47C224.11,299.13,208.68,317.61,189.54,333.13ZM172.32,183.48c-25.6,11.91-48.83,37.66-47.92,68.52.74,25.07,18,51.27,46.29,70.33,20.45-15,37-34.72,49.61-51.07q2.53-3.28,5.21-6.64c1.92-2.44,3.85-4.88,5.74-7.34-33.64-13.83-46.65-44.68-58.17-72Zm19.14-6.24c0,.08.07.17.11.25,11.3,26.8,22,52.11,49.89,62.24l1.64.58c6.94-11.64,11.08-23.75,8.21-36.63a31.88,31.88,0,0,0-15.07-21.25C223.22,174.63,205.59,174.47,191.46,177.24Z"/><path class="cls-2" d="M105.77,121.94a61,61,0,1,1,61-61A61,61,0,0,1,105.77,121.94Zm0-101.14A40.17,40.17,0,1,0,145.94,61,40.22,40.22,0,0,0,105.77,20.8Z"/></g></g></svg>