<svg width="54" height="54" viewBox="0 0 54 54" fill="none" xmlns="http://www.w3.org/2000/svg">
<rect y="-1" width="54" height="54" rx="27" fill="#353755"/>
<path d="M23.1867 30.8222C28.1683 30.8222 32.3733 31.6139 32.3733 34.6755C32.3733 37.7346 28.1414 38.5 23.1867 38.5L22.8483 38.4988C18.016 38.4628 14 37.6387 14 34.6467C14 31.5876 18.2319 30.8222 23.1867 30.8222ZM30.9621 28.979C32.8567 28.9431 34.8944 29.1982 35.6466 29.3779C37.2415 29.6833 38.2897 30.305 38.7239 31.2117C39.092 31.9543 39.092 32.8167 38.7239 33.5594C38.0597 34.9632 35.9169 35.4147 35.084 35.5309C34.9115 35.5549 34.7733 35.4111 34.7916 35.2411C35.2173 31.3506 31.833 29.506 30.9572 29.082C30.9205 29.0617 30.912 29.0329 30.9156 29.0137C30.9181 29.0018 30.934 28.9826 30.9621 28.979ZM23.1867 16C26.5612 16 29.2654 18.6483 29.2654 21.953C29.2654 25.2577 26.5612 27.906 23.1867 27.906C19.8134 27.906 17.1079 25.2577 17.1079 21.953C17.1079 18.6483 19.8134 16 23.1867 16ZM31.2924 16.9943C34.5519 16.9943 37.1106 19.9959 36.2386 23.339C35.6503 25.592 33.5208 27.0881 31.148 27.027C30.9095 27.0222 30.6759 26.9994 30.4484 26.9623C30.2845 26.9335 30.2014 26.7527 30.2955 26.6185C31.2006 25.3141 31.7168 23.7438 31.7168 22.0609C31.7168 20.3026 31.1542 18.6652 30.1745 17.3201C30.1427 17.2782 30.1194 17.2147 30.1512 17.1656C30.1757 17.1272 30.2246 17.1057 30.2699 17.0961C30.6001 17.0302 30.9389 16.9943 31.2924 16.9943Z" fill="white"/>
</svg>
